<svg id="a" xmlns="http://www.w3.org/2000/svg" width="17.29mm" height="16.93mm"
  xmlns:xlink="http://www.w3.org/1999/xlink" viewBox="0 0 49 48">
  <defs>
    <linearGradient id="b" x1="24.26" y1="41.08" x2="24.26" y2="7.08" gradientTransform="translate(0 .11)"
      gradientUnits="userSpaceOnUse">
      <stop offset="0" stop-color="#326dff" />
      <stop offset="1" stop-color="#8eaeff" />
    </linearGradient>
    <linearGradient id="c" x1="23.02" y1="24.19" x2="32.69" y2="24.19" gradientUnits="userSpaceOnUse">
      <stop offset="0" stop-color="#326dff" />
      <stop offset="1" stop-color="#8eaeff" />
    </linearGradient>
  </defs>
  <path
    d="M18.05,41.02c-1.67-.35-3.19-1.21-4.4-2.48-1.2-1.27-2.02-2.88-2.35-4.64-.12-.66-.18-1.32-.16-1.99h0V15.85h0c.05-1.05.26-2.08.64-3.06.43-1.1,1.06-2.1,1.86-2.94.8-.84,1.74-1.51,2.78-1.97,1.04-.46,2.16-.69,3.29-.69v24.94s17.65,0,17.65,0c0,1.19-.23,2.37-.67,3.47-.44,1.1-1.1,2.1-1.92,2.94-.82.84-1.79,1.51-2.87,1.96-1.07.46-2.22.69-3.38.69-.07,0-.15,0-.22,0h0s-8.58,0-8.58,0c-.56,0-1.12-.06-1.67-.17Z"
    style="fill: url(#b); stroke-width: 0px;" />
  <circle cx="27.86" cy="24.19" r="4.83" style="fill: url(#c); stroke-width: 0px;" />
</svg>