<svg id="a" xmlns="http://www.w3.org/2000/svg" width="2328.69mm" height="475.9mm"
  xmlns:xlink="http://www.w3.org/1999/xlink" viewBox="0 0 6601 1349">
  <defs>
    <linearGradient id="b" x1="1053.99" y1="1103.12" x2="1053.99" y2="245.66" gradientTransform="translate(0 .11)"
      gradientUnits="userSpaceOnUse">
      <stop offset="0" stop-color="#326dff" />
      <stop offset="1" stop-color="#8eaeff" />
    </linearGradient>
    <linearGradient id="c" x1="1022.87" y1="674.5" x2="1266.66" y2="674.5" gradientTransform="matrix(1,0,0,1,0,0)"
      xlink:href="#b" />
  </defs>
  <path
    d="M897.5,1098.83c-42-8.82-80.57-30.58-110.85-62.54-30.28-31.96-50.9-72.68-59.25-117.01-3.12-16.56-4.48-33.36-4.1-50.07h-.06v-405.16h.22c1.14-26.48,6.64-52.57,16.26-77.11,10.88-27.75,26.83-52.96,46.93-74.19,20.1-21.24,43.97-38.08,70.24-49.57,26.27-11.49,54.42-17.41,82.85-17.41v628.93s445.02,0,445.02,0c0,30.01-5.77,59.73-16.96,87.45-11.2,27.73-27.62,52.92-48.31,74.14-20.69,21.22-45.26,38.05-72.3,49.54-27.04,11.48-56.02,17.4-85.28,17.4-1.89,0-3.78-.02-5.66-.07v.07h-216.49c-14.12,0-28.26-1.46-42.24-4.39Z"
    style="fill: url(#b); stroke-width: 0px;" />
  <circle cx="1144.77" cy="674.5" r="121.89" style="fill: url(#c); stroke-width: 0px;" />
  <g>
    <path
      d="M1919.04,420.51v487.83h275.24c21.95,0,38.78,5.34,50.52,16,11.73,10.67,17.6,24.08,17.6,40.23s-5.79,29.8-17.37,40c-11.59,10.22-28.5,15.32-50.75,15.32h-327.81c-29.57,0-50.83-6.55-63.78-19.66-12.96-13.1-19.43-34.29-19.43-63.55V420.51c0-27.43,6.17-48.01,18.52-61.72,12.34-13.72,28.57-20.57,48.69-20.57s36.95,6.79,49.61,20.35c12.64,13.57,18.97,34.22,18.97,61.95Z"
      style="fill: #2b3242; stroke-width: 0px;" />
    <path
      d="M2499.59,465.77c-17.37,0-32.23-5.33-44.58-16-12.34-10.67-18.52-25.75-18.52-45.26,0-17.67,6.32-32.23,18.97-43.66,12.64-11.43,27.35-17.14,44.12-17.14s30.48,5.19,42.98,15.54c12.49,10.37,18.75,25.45,18.75,45.26s-6.1,34.22-18.29,45.03c-12.19,10.82-26.67,16.23-43.43,16.23ZM2561.31,594.7v360.73c0,25-5.94,43.89-17.83,56.69-11.89,12.8-26.98,19.2-45.26,19.2s-33.15-6.56-44.58-19.66-17.15-31.85-17.15-56.24v-357.07c0-24.69,5.71-43.28,17.15-55.78,11.43-12.49,26.29-18.75,44.58-18.75s33.38,6.25,45.26,18.75c11.89,12.5,17.83,29.88,17.83,52.12Z"
      style="fill: #2b3242; stroke-width: 0px;" />
    <path
      d="M2899.09,409.53v190.65c23.47-24.38,47.39-43.05,71.78-56.01,24.38-12.95,54.56-19.43,90.53-19.43,41.45,0,77.8,9.83,109.04,29.49,31.24,19.66,55.47,48.16,72.69,85.5,17.22,37.34,25.83,81.61,25.83,132.82,0,37.8-4.8,72.47-14.4,104.01-9.6,31.55-23.55,58.91-41.83,82.07-18.29,23.17-40.46,41.08-66.52,53.72s-54.79,18.97-86.18,18.97c-19.2,0-37.26-2.29-54.18-6.86-16.92-4.57-31.32-10.59-43.21-18.06-11.89-7.47-22.02-15.16-30.4-23.09-8.39-7.92-19.43-19.81-33.15-35.66v12.34c0,23.47-5.64,41.23-16.92,53.26-11.28,12.04-25.6,18.06-42.98,18.06s-31.78-6.02-42.29-18.06c-10.52-12.04-15.77-29.79-15.77-53.26V415.02c0-25.3,5.1-44.42,15.32-57.38,10.21-12.95,24.46-19.43,42.75-19.43,19.2,0,33.98,6.17,44.35,18.52,10.36,12.34,15.54,29.95,15.54,52.81ZM2905.04,780.32c0,49.68,11.35,87.86,34.06,114.53,22.7,26.67,52.5,40.01,89.38,40.01,31.39,0,58.44-13.64,81.15-40.92,22.7-27.27,34.06-66.37,34.06-117.27,0-32.92-4.73-61.26-14.17-85.04-9.45-23.77-22.86-42.13-40.23-55.09-17.37-12.95-37.65-19.43-60.81-19.43s-44.96,6.48-63.55,19.43c-18.6,12.96-33.23,31.7-43.89,56.24-10.67,24.54-16,53.72-16,87.55Z"
      style="fill: #2b3242; stroke-width: 0px;" />
    <path
      d="M4042.46,808.21c0,21.34-5.26,44.43-15.77,69.27-10.52,24.85-27.05,49.23-49.61,73.15-22.56,23.93-51.36,43.36-86.41,58.29-35.05,14.93-75.89,22.4-122.53,22.4-35.36,0-67.52-3.36-96.47-10.06-28.96-6.7-55.25-17.15-78.87-31.32-23.62-14.17-45.34-32.84-65.15-56.01-17.68-21.03-32.77-44.58-45.26-70.64-12.5-26.06-21.87-53.87-28.12-83.44-6.25-29.56-9.37-60.96-9.37-94.18,0-53.95,7.84-102.26,23.55-144.93,15.69-42.67,38.18-79.17,67.44-109.5,29.26-30.33,63.55-53.41,102.87-69.27,39.32-15.85,81.22-23.78,125.73-23.78,54.25,0,102.56,10.82,144.93,32.46,42.36,21.65,74.82,48.39,97.38,80.24,22.55,31.85,33.83,61.95,33.83,90.3,0,15.54-5.49,29.26-16.46,41.15-10.97,11.89-24.23,17.83-39.78,17.83-17.37,0-30.4-4.11-39.09-12.34-8.69-8.23-18.37-22.4-29.03-42.52-17.68-33.22-38.48-58.06-62.41-74.52-23.93-16.46-53.42-24.69-88.47-24.69-55.78,0-100.21,21.19-133.27,63.55-33.08,42.37-49.61,102.57-49.61,180.59,0,52.12,7.32,95.48,21.95,130.07,14.63,34.6,35.36,60.43,62.18,77.5,26.82,17.07,58.21,25.6,94.18,25.6,39.01,0,72.01-9.67,98.98-29.03,26.97-19.35,47.32-47.78,61.04-85.27,5.79-17.67,12.95-32.08,21.49-43.21,8.53-11.12,22.25-16.69,41.15-16.69,16.15,0,30.02,5.64,41.61,16.92,11.58,11.28,17.37,25.3,17.37,42.06Z"
      style="fill: #2b3242; stroke-width: 0px;" />
    <path
      d="M4371.55,414.11v185.17c15.84-18.29,31.32-32.76,46.41-43.43,15.09-10.67,31.78-18.67,50.06-24,18.29-5.33,37.95-8,58.98-8,31.7,0,59.81,6.71,84.35,20.12,24.53,13.42,43.81,32.92,57.84,58.52,8.84,14.94,14.78,31.63,17.83,50.06,3.04,18.45,4.57,39.71,4.57,63.78v239.12c0,25-5.71,43.89-17.15,56.69-11.43,12.8-26.6,19.2-45.49,19.2-41.15,0-61.72-25.3-61.72-75.9v-210.77c0-39.93-5.94-70.64-17.83-92.13-11.89-21.49-34.45-32.23-67.67-32.23-22.25,0-42.29,6.33-60.12,18.97-17.83,12.65-31.17,29.95-40,51.89-6.71,18.59-10.06,51.66-10.06,99.21v165.05c0,24.69-5.57,43.51-16.69,56.46-11.13,12.95-26.6,19.43-46.41,19.43-41.15,0-61.72-25.3-61.72-75.9V414.11c0-25.3,5.41-44.27,16.23-56.92,10.82-12.64,25.98-18.97,45.49-18.97s35.28,6.4,46.41,19.2c11.12,12.8,16.69,31.7,16.69,56.69Z"
      style="fill: #2b3242; stroke-width: 0px;" />
    <path
      d="M5224.14,960.92c-30.18,23.47-59.37,41.08-87.55,52.81-28.2,11.73-59.82,17.6-94.87,17.6-32,0-60.12-6.33-84.35-18.97s-42.91-29.79-56.01-51.43c-13.11-21.64-19.66-45.11-19.66-70.41,0-34.13,10.82-63.24,32.46-87.33,21.64-24.08,51.36-40.23,89.15-48.46,7.92-1.83,27.58-5.94,58.98-12.34,31.39-6.4,58.29-12.27,80.7-17.6,22.4-5.33,46.71-11.81,72.92-19.43-1.53-32.92-8.16-57.07-19.89-72.47-11.74-15.39-36.05-23.09-72.92-23.09-31.7,0-55.55,4.42-71.55,13.26-16,8.84-29.72,22.1-41.15,39.78-11.43,17.68-19.51,29.34-24.23,34.98-4.73,5.64-14.86,8.46-30.4,8.46-14.02,0-26.14-4.49-36.35-13.49-10.22-8.99-15.32-20.5-15.32-34.52,0-21.95,7.77-43.28,23.32-64.01,15.54-20.72,39.78-37.79,72.69-51.21,32.92-13.41,73.91-20.12,122.99-20.12,54.86,0,97.99,6.48,129.39,19.43,31.39,12.96,53.56,33.45,66.52,61.49,12.95,28.05,19.43,65.23,19.43,111.56,0,29.26-.08,54.11-.23,74.52-.16,20.42-.39,43.13-.69,68.12,0,23.47,3.89,47.94,11.66,73.38,7.77,25.45,11.66,41.83,11.66,49.15,0,12.8-6.02,24.46-18.06,34.98-12.04,10.52-25.68,15.77-40.92,15.77-12.8,0-25.45-6.02-37.95-18.06-12.5-12.04-25.76-29.49-39.78-52.35ZM5215.91,780.32c-18.29,6.71-44.88,13.79-79.78,21.26-34.9,7.47-59.06,12.96-72.47,16.46-13.42,3.51-26.22,10.37-38.41,20.57-12.19,10.22-18.29,24.46-18.29,42.75s7.16,34.98,21.49,48.24c14.32,13.26,33.07,19.89,56.24,19.89,24.69,0,47.47-5.41,68.35-16.23,20.87-10.82,36.19-24.76,45.95-41.83,11.27-18.9,16.92-49.99,16.92-93.27v-17.83Z"
      style="fill: #2b3242; stroke-width: 0px;" />
    <path
      d="M5542.26,534.81h13.72v-74.98c0-20.12.53-35.89,1.6-47.32,1.06-11.43,4.04-21.26,8.92-29.49,4.87-8.53,11.89-15.47,21.03-20.8,9.14-5.33,19.35-8,30.63-8,15.84,0,30.18,5.94,42.98,17.83,8.53,7.93,13.95,17.6,16.23,29.03,2.29,11.43,3.43,27.66,3.43,48.69v85.04h45.72c17.67,0,31.16,4.19,40.46,12.57,9.29,8.39,13.94,19.13,13.94,32.23,0,16.77-6.63,28.5-19.89,35.21-13.26,6.71-32.23,10.06-56.92,10.06h-23.32v229.51c0,19.51.69,34.52,2.06,45.03,1.37,10.52,5.03,19.05,10.97,25.6,5.94,6.56,15.62,9.83,29.03,9.83,7.32,0,17.22-1.29,29.72-3.89,12.5-2.59,22.25-3.89,29.26-3.89,10.06,0,19.12,4.04,27.2,12.12,8.07,8.08,12.12,18.06,12.12,29.95,0,20.12-10.97,35.51-32.92,46.18-21.95,10.67-53.49,16-94.64,16-39.02,0-68.58-6.56-88.7-19.66s-33.3-31.24-39.55-54.41c-6.25-23.16-9.37-54.1-9.37-92.81v-239.57h-16.46c-17.99,0-31.7-4.27-41.15-12.8-9.45-8.53-14.17-19.35-14.17-32.46s4.95-23.85,14.86-32.23c9.9-8.38,24.3-12.57,43.21-12.57Z"
      style="fill: #2b3242; stroke-width: 0px;" />
  </g>
</svg>